<svg width="16" height="16" viewBox="0 0 16 16" fill="none" xmlns="http://www.w3.org/2000/svg">
<path d="M13.2999 14C11.911 14 10.5388 13.6973 9.18321 13.092C7.82766 12.4867 6.59432 11.6282 5.48321 10.5167C4.3721 9.40511 3.51388 8.17178 2.90854 6.81667C2.30321 5.46156 2.00032 4.08933 1.99988 2.7C1.99988 2.5 2.06654 2.33333 2.19988 2.2C2.33321 2.06667 2.49988 2 2.69988 2H5.39988C5.55543 2 5.69432 2.05289 5.81655 2.15867C5.93877 2.26444 6.01099 2.38933 6.03321 2.53333L6.46654 4.86667C6.48877 5.04444 6.48321 5.19444 6.44988 5.31667C6.41654 5.43889 6.35543 5.54444 6.26654 5.63333L4.64988 7.26667C4.8721 7.67778 5.13588 8.07489 5.44121 8.458C5.74654 8.84111 6.08277 9.21067 6.44988 9.56667C6.79432 9.91111 7.15543 10.2307 7.53321 10.5253C7.91099 10.82 8.31099 11.0893 8.73321 11.3333L10.2999 9.76667C10.3999 9.66667 10.5305 9.59178 10.6919 9.542C10.8532 9.49222 11.0114 9.47822 11.1665 9.5L13.4665 9.96667C13.6221 10.0111 13.7499 10.0918 13.8499 10.2087C13.9499 10.3256 13.9999 10.456 13.9999 10.6V13.3C13.9999 13.5 13.9332 13.6667 13.7999 13.8C13.6665 13.9333 13.4999 14 13.2999 14Z" fill="white"/>
</svg>
