<svg width="26" height="25" viewBox="0 0 26 25" fill="none" xmlns="http://www.w3.org/2000/svg">
<path d="M4.71929 0.670898C2.10498 0.670898 -6.10352e-05 2.60051 -6.10352e-05 4.99696V20.0371C-6.10352e-05 22.4336 2.10498 24.3632 4.71929 24.3632H13.612V15.101H10.9402V11.7663H13.612V8.9173C13.612 6.67897 15.1907 4.62381 18.8273 4.62381C20.2997 4.62381 21.3885 4.75338 21.3885 4.75338L21.3028 7.86745C21.3028 7.86745 20.1924 7.85783 18.9807 7.85783C17.6693 7.85783 17.459 8.41171 17.459 9.3312V11.7663H21.407L21.235 15.101H17.459V24.3632H21.1267C23.7411 24.3632 25.8461 22.4336 25.8461 20.0371V4.99699C25.8461 2.60054 23.7411 0.670922 21.1267 0.670922H4.71927L4.71929 0.670898Z" fill="#27A9E1"/>
</svg>
