<svg width="25" height="25" viewBox="0 0 25 25" fill="none" xmlns="http://www.w3.org/2000/svg">
<path d="M12.2276 8.56665C10.0524 8.56665 8.27729 10.3418 8.27729 12.5171C8.27729 14.6923 10.0524 16.4675 12.2276 16.4675C14.4028 16.4675 16.1779 14.6923 16.1779 12.5171C16.1779 10.3418 14.4028 8.56665 12.2276 8.56665ZM24.0756 12.5171C24.0756 10.8812 24.0904 9.26012 23.9986 7.62721C23.9067 5.73054 23.474 4.04725 22.0871 2.66032C20.6973 1.27041 19.017 0.840702 17.1203 0.748832C15.4845 0.656962 13.8635 0.67178 12.2306 0.67178C10.5947 0.67178 8.97371 0.656962 7.34083 0.748832C5.4442 0.840702 3.76094 1.27338 2.37402 2.66032C0.984149 4.05022 0.554444 5.73054 0.462576 7.62721C0.370708 9.26308 0.385525 10.8841 0.385525 12.5171C0.385525 14.15 0.370708 15.774 0.462576 17.4069C0.554444 19.3036 0.987113 20.9869 2.37402 22.3738C3.7639 23.7637 5.4442 24.1934 7.34083 24.2853C8.97667 24.3771 10.5977 24.3623 12.2306 24.3623C13.8664 24.3623 15.4874 24.3771 17.1203 24.2853C19.017 24.1934 20.7002 23.7607 22.0871 22.3738C23.477 20.9839 23.9067 19.3036 23.9986 17.4069C24.0934 15.774 24.0756 14.1529 24.0756 12.5171ZM12.2276 18.5953C8.86406 18.5953 6.1495 15.8807 6.1495 12.5171C6.1495 9.15343 8.86406 6.43883 12.2276 6.43883C15.5912 6.43883 18.3057 9.15343 18.3057 12.5171C18.3057 15.8807 15.5912 18.5953 12.2276 18.5953ZM18.5547 7.60943C17.7693 7.60943 17.1351 6.97523 17.1351 6.18989C17.1351 5.40455 17.7693 4.77036 18.5547 4.77036C19.34 4.77036 19.9742 5.40455 19.9742 6.18989C19.9744 6.37637 19.9378 6.56107 19.8666 6.7334C19.7953 6.90573 19.6908 7.06232 19.5589 7.19418C19.4271 7.32604 19.2705 7.43059 19.0982 7.50185C18.9258 7.57311 18.7411 7.60966 18.5547 7.60943Z" fill="#27A9E1"/>
</svg>
