<svg width="20" height="21" viewBox="0 0 20 21" fill="none" xmlns="http://www.w3.org/2000/svg">
<g clip-path="url(#clip0_319_5991)">
<path d="M10.5786 13.0411C10.3897 13.1592 10.1772 13.2064 9.98825 13.2064C9.79935 13.2064 9.58684 13.1592 9.39794 13.0411L6.10352e-05 7.30322V14.9301C6.10352e-05 16.5594 1.32238 17.8817 2.95165 17.8817H17.0485C18.6777 17.8817 20.0001 16.5594 20.0001 14.9301V7.30322L10.5786 13.0411Z" fill="#134A8E"/>
<path d="M17.048 3.1499H2.9512C1.55805 3.1499 0.377408 4.14164 0.0940552 5.46395L10.0114 11.5088L19.9052 5.46395C19.6218 4.14164 18.4412 3.1499 17.048 3.1499Z" fill="#134A8E"/>
</g>
<defs>
<clipPath id="clip0_319_5991">
<rect width="20" height="20" fill="white" transform="translate(0 0.51709)"/>
</clipPath>
</defs>
</svg>
