<svg width="25" height="25" viewBox="0 0 25 25" fill="none" xmlns="http://www.w3.org/2000/svg">
<path d="M21.9231 0.670898H3.30769C1.90625 0.670898 0.769226 1.80792 0.769226 3.20936V21.8247C0.769226 23.2262 1.90625 24.3632 3.30769 24.3632H21.9231C23.3245 24.3632 24.4615 23.2262 24.4615 21.8247V3.20936C24.4615 1.80792 23.3245 0.670898 21.9231 0.670898ZM19.337 9.06898C19.3476 9.21705 19.3476 9.37042 19.3476 9.51849C19.3476 14.1036 15.8572 19.3868 9.47932 19.3868C7.51201 19.3868 5.6875 18.8156 4.15384 17.832C4.43413 17.8637 4.70384 17.8743 4.98942 17.8743C6.61298 17.8743 8.10432 17.3243 9.29423 16.3935C7.77115 16.3618 6.49134 15.3622 6.0524 13.9872C6.58653 14.0666 7.06778 14.0666 7.61778 13.9238C6.03125 13.6012 4.84134 12.205 4.84134 10.518V10.4757C5.30144 10.7348 5.84086 10.8935 6.40673 10.9146C5.93099 10.5982 5.541 10.1689 5.27154 9.66507C5.00209 9.16123 4.86156 8.59852 4.8625 8.02715C4.8625 7.38196 5.03173 6.78965 5.33317 6.27667C7.04134 8.38148 9.60625 9.75648 12.4832 9.90455C11.9913 7.55119 13.7524 5.64205 15.8678 5.64205C16.8673 5.64205 17.7663 6.05984 18.401 6.73676C19.1836 6.58869 19.9346 6.29782 20.601 5.90119C20.3418 6.70503 19.7971 7.38196 19.0779 7.81032C19.776 7.73628 20.4529 7.54061 21.0769 7.2709C20.6062 7.96369 20.0139 8.57715 19.337 9.06898Z" fill="#27A9E1"/>
</svg>
